:FULLY-SPECIFIED
:FORCE-ALL-JOINTS-BE-3DOF
:DEGREES
306
root 9.08329 15.6045 -23.4877 30.353 63.1118 34.4463
lfemur -13.8607 13.6416 -18.722
ltibia 48.0492 0 0
lfoot -15.7546 -11.9786 0
ltoes 23.0871 0 0
rfemur -44.3992 -4.05646 11.4878
rtibia 54.4571 0 0
rfoot 8.62051 -18.2406 0
rtoes 40.2107 0 0
lowerback 6.64235 -3.88728 -5.15066
upperback 4.31457 -5.32258 -2.95249
thorax 0.950647 -2.67495 0.1281
lowerneck -2.8865 -12.294 -3.14178
upperneck -0.437038 -16.389 7.22521
head 1.32568 -8.18243 2.38777
lclavicle -7.50585e-15 1.76195e-14 0
lhumerus -45.9644 -45.6288 108.339
lradius 60.1342 0 0
lwrist 15.4039 0 0
lhand 15.8324 13.5594 0
lfingers 7.12502 0 0
lthumb 40.6322 38.5721 0
rclavicle -7.50585e-15 1.76195e-14 0
rhumerus -44.135 14.4135 -84.8745
rradius 74.7774 0 0
rwrist 7.48467 0 0
rhand -33.8149 -16.0515 0
rfingers 7.12502 0 0
rthumb -6.99843 -765.847 0
307
root 9.0532 15.6158 -23.4099 29.1096 61.6898 32.871
lfemur -13.7642 14.2273 -18.4325
ltibia 47.6358 0 0
lfoot -15.9556 -10.1921 0
ltoes 20.3586 0 0
rfemur -44.5996 -4.28617 10.7097
rtibia 54.5078 0 0
rfoot 8.64997 -18.1906 0
rtoes 40.0159 0 0
lowerback 6.57611 -3.72309 -5.05711
upperback 4.28006 -5.10156 -2.86273
thorax 0.942003 -2.56536 0.155903
lowerneck -2.94119 -12.2692 -2.85311
upperneck -0.758134 -16.345 7.22236
head 1.20323 -8.16642 2.35371
lclavicle -8.51413e-15 1.76483e-14 0
lhumerus -46.2533 -45.9742 108.725
lradius 60.1156 0 0
lwrist 15.3516 0 0
lhand 15.7105 13.5587 0
lfingers 7.12502 0 0
lthumb 40.5176 38.6066 0
rclavicle -8.51413e-15 1.76483e-14 0
rhumerus -41.9857 14.3789 -83.2745
rradius 75.1543 0 0
rwrist 6.73091 0 0
rhand -34.2197 -16.898 0
rfingers 7.12502 0 0
rthumb -7.38908 -766.678 0
308
root 9.0229 15.6272 -23.3315 27.8572 60.2576 31.2844
lfemur -13.667 14.8173 -18.141
ltibia 47.2194 0 0
lfoot -16.1582 -8.39277 0
ltoes 17.6104 0 0
rfemur -44.8014 -4.51754 9.92593
rtibia 54.5588 0 0
rfoot 8.67964 -18.1402 0
rtoes 39.8197 0 0
lowerback 6.50939 -3.55771 -4.96287
upperback 4.2453 -4.87895 -2.77232
thorax 0.933298 -2.45499 0.183906
lowerneck -2.99627 -12.2441 -2.56235
upperneck -1.08154 -16.3006 7.21949
head 1.07991 -8.1503 2.31941
lclavicle -9.52967e-15 1.76773e-14 0
lhumerus -46.5442 -46.3221 109.114
lradius 60.0968 0 0
lwrist 15.2988 0 0
lhand 15.5877 13.558 0
lfingers 7.12502 0 0
lthumb 40.4021 38.6414 0
rclavicle -9.52967e-15 1.76773e-14 0
rhumerus -39.821 14.3441 -81.663
rradius 75.5339 0 0
rwrist 5.97171 0 0
rhand -34.6274 -17.7507 0
rfingers 7.12502 0 0
rthumb -7.78255 -767.516 0
309
root 8.99252 15.6387 -23.2529 26.6018 58.8219 29.6939
lfemur -13.5697 15.4086 -17.8489
ltibia 46.802 0 0
lfoot -16.3612 -6.58913 0
ltoes 14.8556 0 0
rfemur -45.0038 -4.74947 9.14032
rtibia 54.6099 0 0
rfoot 8.70938 -18.0898 0
rtoes 39.623 0 0
lowerback 6.44252 -3.39195 -4.86842
upperback 4.21045 -4.65581 -2.68169
thorax 0.924571 -2.34435 0.211975
lowerneck -3.05149 -12.2191 -2.27091
upperneck -1.40573 -16.2561 7.21661
head 0.956291 -8.13415 2.28503
lclavicle -1.05476e-14 1.77064e-14 0
lhumerus -46.8359 -46.6709 109.505
lradius 60.078 0 0
lwrist 15.246 0 0
lhand 15.4646 13.5572 0
lfingers 7.12502 0 0
lthumb 40.2864 38.6762 0
rclavicle -1.05476e-14 1.77064e-14 0
rhumerus -37.651 14.3091 -80.0477
rradius 75.9144 0 0
rwrist 5.21071 0 0
rhand -35.0361 -18.6053 0
rfingers 7.12502 0 0
rthumb -8.17695 -768.355 0
310
root 8.96222 15.6501 -23.1745 25.3494 57.3897 28.1072
lfemur -13.4725 15.9985 -17.5574
ltibia 46.3856 0 0
lfoot -16.5638 -4.78978 0
ltoes 12.1074 0 0
rfemur -45.2056 -4.98084 8.35658
rtibia 54.6609 0 0
rfoot 8.73905 -18.0394 0
rtoes 39.4268 0 0
lowerback 6.3758 -3.22657 -4.77418
upperback 4.17569 -4.4332 -2.59128
thorax 0.915866 -2.23398 0.239978
lowerneck -3.10657 -12.194 -1.98015
upperneck -1.72914 -16.2117 7.21374
head 0.832967 -8.11803 2.25073
lclavicle -1.15632e-14 1.77354e-14 0
lhumerus -47.1268 -47.0188 109.894
lradius 60.0592 0 0
lwrist 15.1932 0 0
lhand 15.3418 13.5565 0
lfingers 7.12502 0 0
lthumb 40.1709 38.711 0
rclavicle -1.15632e-14 1.77354e-14 0
rhumerus -35.4863 14.2743 -78.4362
rradius 76.294 0 0
rwrist 4.45151 0 0
rhand -35.4438 -19.4579 0
rfingers 7.12502 0 0
rthumb -8.57042 -769.193 0
311
root 8.93213 15.6614 -23.0967 24.106 55.9677 26.5319
lfemur -13.376 16.5842 -17.2679
ltibia 45.9722 0 0
lfoot -16.7648 -3.00331 0
ltoes 9.37891 0 0
rfemur -45.406 -5.21055 7.57845
rtibia 54.7116 0 0
rfoot 8.76851 -17.9894 0
rtoes 39.232 0 0
lowerback 6.30956 -3.06238 -4.68063
upperback 4.14118 -4.21218 -2.50152
thorax 0.907222 -2.12439 0.267781
lowerneck -3.16126 -12.1692 -1.69148
upperneck -2.05023 -16.1677 7.21089
head 0.710525 -8.10202 2.21667
lclavicle -1.25714e-14 1.77642e-14 0
lhumerus -47.4157 -47.3642 110.28
lradius 60.0406 0 0
lwrist 15.1409 0 0
lhand 15.2199 13.5558 0
lfingers 7.12502 0 0
lthumb 40.0563 38.7455 0
rclavicle -1.25714e-14 1.77642e-14 0
rhumerus -33.337 14.2397 -76.8362
rradius 76.6709 0 0
rwrist 3.69775 0 0
rhand -35.8486 -20.3045 0
rfingers 7.12502 0 0
rthumb -8.96107 -770.024 0
312
root 8.90241 15.6726 -23.0198 22.8775 54.5628 24.9755
lfemur -13.2807 17.1629 -16.982
ltibia 45.5637 0 0
lfoot -16.9635 -1.2383 0
ltoes 6.68317 0 0
rfemur -45.6041 -5.43751 6.80967
rtibia 54.7616 0 0
rfoot 8.79761 -17.94 0
rtoes 39.0395 0 0
lowerback 6.24412 -2.90016 -4.58819
upperback 4.10709 -3.99382 -2.41284
thorax 0.898683 -2.01612 0.295249
lowerneck -3.21529 -12.1446 -1.40627
upperneck -2.36747 -16.1242 7.20807
head 0.589554 -8.08621 2.18302
lclavicle -1.35676e-14 1.77927e-14 0
lhumerus -47.7011 -47.7054 110.662
lradius 60.0221 0 0
lwrist 15.0891 0 0
lhand 15.0995 13.555 0
lfingers 7.12502 0 0
lthumb 39.9431 38.7796 0
rclavicle -1.35676e-14 1.77927e-14 0
rhumerus -31.2136 14.2056 -75.2555
rradius 77.0432 0 0
rwrist 2.95304 0 0
rhand -36.2486 -21.1408 0
rfingers 7.12502 0 0
rthumb -9.34702 -770.846 0
313
root 8.87319 15.6836 -22.9442 21.6699 53.1819 23.4457
lfemur -13.187 17.7317 -16.7009
ltibia 45.1622 0 0
lfoot -17.1588 0.496654 0
ltoes 4.03332 0 0
rfemur -45.7987 -5.6606 6.05398
rtibia 54.8108 0 0
rfoot 8.82622 -17.8915 0
rtoes 38.8503 0 0
lowerback 6.17979 -2.74071 -4.49733
upperback 4.07357 -3.77918 -2.32566
thorax 0.890288 -1.9097 0.32225
lowerneck -3.26841 -12.1205 -1.12592
upperneck -2.67931 -16.0814 7.2053
head 0.470643 -8.07067 2.14995
lclavicle -1.45468e-14 1.78206e-14 0
lhumerus -47.9817 -48.0409 111.037
lradius 60.004 0 0
lwrist 15.0383 0 0
lhand 14.9811 13.5543 0
lfingers 7.12502 0 0
lthumb 39.8317 38.8131 0
rclavicle -1.45468e-14 1.78206e-14 0
rhumerus -29.1263 14.172 -73.7017
rradius 77.4092 0 0
rwrist 2.22102 0 0
rhand -36.6417 -21.9629 0
rfingers 7.12502 0 0
rthumb -9.72641 -771.654 0
